<svg xmlns="http://www.w3.org/2000/svg" viewBox="0 0 13 13" shape-rendering="crispEdges"><path d="M0 1h1v1H0zM1 0h1v1H1zM2 0h1v1H2zM3 0h1v1H3zM4 1h1v1H4zM3 1h1v1H3zM3 2h1v1H3zM2 2h1v1H2zM2 3h1v1H2zM3 3h1v1H3zM4 4h1v1H4zM5 4h1v1H5zM6 4h1v1H6zM7 4h1v1H7zM8 4h1v1H8zM9 3h1v1H9zM10 2h1v1H10zM9 2h1v1H9zM10 1h1v1H10zM9 1h1v1H9zM9 0h1v1H9zM8 0h1v1H8zM8 1h1v1H8zM7 1h1v1H7zM6 2h1v1H6zM6 3h1v1H6zM5 3h1v1H5zM4 5h1v1H4zM5 5h1v1H5zM6 5h1v1H6zM6 6h1v1H6zM5 6h1v1H5zM4 6h1v1H4zM4 7h1v1H4zM5 7h1v1H5zM6 7h1v1H6zM6 8h1v1H6zM5 8h1v1H5zM4 8h1v1H4zM4 9h1v1H4zM5 9h1v1H5zM6 9h1v1H6zM5 10h1v1H5zM4 10h1v1H4zM3 11h1v1H3zM2 12h1v1H2zM4 11h1v1H4zM5 11h1v1H5zM6 11h1v1H6zM6 12h1v1H6zM7 11h1v1H7zM7 12h1v1H7zM8 11h1v1H8zM8 12h1v1H8zM9 11h1v1H9zM9 12h1v1H9zM10 11h1v1H10zM11 11h1v1H11zM12 10h1v1H12zM8 10h1v1H8zM8 9h1v1H8zM8 8h1v1H8zM8 7h1v1H8zM8 6h1v1H8zM8 5h1v1H8z" fill="#db4b34"/></svg>
